<?xml version="1.0" standalone="no"?><svg xmlns="http://www.w3.org/2000/svg" viewBox="0 0 1440 320"><path fill="#00a86b" fill-opacity="1" d="M0,128L0,320L53.3,320L53.3,128L106.7,128L106.7,224L160,224L160,96L213.3,96L213.3,320L266.7,320L266.7,96L320,96L320,320L373.3,320L373.3,32L426.7,32L426.7,128L480,128L480,256L533.3,256L533.3,256L586.7,256L586.7,64L640,64L640,224L693.3,224L693.3,192L746.7,192L746.7,128L800,128L800,64L853.3,64L853.3,96L906.7,96L906.7,256L960,256L960,96L1013.3,96L1013.3,96L1066.7,96L1066.7,192L1120,192L1120,128L1173.3,128L1173.3,64L1226.7,64L1226.7,128L1280,128L1280,288L1333.3,288L1333.3,64L1386.7,64L1386.7,192L1440,192L1440,320L1386.7,320L1386.7,320L1333.3,320L1333.3,320L1280,320L1280,320L1226.7,320L1226.7,320L1173.3,320L1173.3,320L1120,320L1120,320L1066.7,320L1066.7,320L1013.3,320L1013.3,320L960,320L960,320L906.7,320L906.7,320L853.3,320L853.3,320L800,320L800,320L746.7,320L746.7,320L693.3,320L693.3,320L640,320L640,320L586.7,320L586.7,320L533.3,320L533.3,320L480,320L480,320L426.7,320L426.7,320L373.3,320L373.3,320L320,320L320,320L266.7,320L266.7,320L213.3,320L213.3,320L160,320L160,320L106.7,320L106.7,320L53.3,320L53.3,320L0,320L0,320Z"></path></svg>